<?xml version="1.0" encoding="utf-8"?>
<svg xmlns="http://www.w3.org/2000/svg" width="16" height="16" viewBox="0 0 24 24" fill="none" stroke="#ffffff" stroke-width="0.5" stroke-linecap="round" stroke-linejoin="round" class="lucide lucide-pickaxe-icon lucide-pickaxe" xmlns:bx="https://boxy-svg.com"><defs><bx:export><bx:file format="svg" path="pickaxe.svg"/></bx:export></defs><path d="M 14.412 12.54 L 6.031 20.92 C 4.876 22.075 2.904 21.547 2.481 19.969 C 2.285 19.237 2.494 18.456 3.03 17.92 L 11.412 9.539" style="fill: rgb(255, 255, 255);"/><path d="M15.973 4.027A13 13 0 0 0 5.902 2.373c-1.398.342-1.092 2.158.277 2.601a19.9 19.9 0 0 1 5.822 3.024" style="fill: rgb(255, 255, 255);"/><path d="M16.001 11.999a19.9 19.9 0 0 1 3.024 5.824c.444 1.369 2.26 1.676 2.603.278A13 13 0 0 0 20 8.069" style="fill: rgb(255, 255, 255);"/><path d="M 20.648 7.352 C 21.118 6.881 17.119 2.882 16.648 3.352 L 11.352 8.648 C 10.882 9.119 14.881 13.118 15.352 12.648 L 20.648 7.352 Z" style="fill: rgb(255, 255, 255);"/></svg>